<svg width="136" height="140" viewBox="0 0 136 140" fill="none" xmlns="http://www.w3.org/2000/svg">
<path d="M65 104C65 73.0721 90.0721 48 121 48H128C128 78.9279 102.928 104 72 104H65Z" fill="black"/>
<path d="M65.8985 85.2569C42.2063 65.3768 39.116 30.0545 58.9961 6.36231L63.4956 1C87.1878 20.8801 90.2781 56.2024 70.398 79.8946L65.8985 85.2569Z" fill="black"/>
<path d="M2 48H9C39.9279 48 65 73.0721 65 104H58C27.0721 104 2 78.9279 2 48Z" fill="white"/>
<path d="M2 48H9C39.9279 48 65 73.0721 65 104H58C27.0721 104 2 78.9279 2 48Z" fill="#050505"/>
<path d="M2.00001 48L15 63L36.6246 71.9059L46.5 91.5L64.5 104" stroke="white" stroke-width="3"/>
<path d="M65.5 103.5L91.8654 91.3808L97.9604 70.7762L116.865 63.6295L127.5 48.5" stroke="white" stroke-width="3"/>
<path d="M65 83.5L71 57L56.8161 37.3816L69.5 20.5L63.5387 1.00001" stroke="white" stroke-width="3"/>
<path d="M11.2472 130H7.46875L12.3764 115.455H17.0568L21.9645 130H18.1861L14.7699 119.119H14.6562L11.2472 130ZM10.7429 124.276H18.6406V126.946H10.7429V124.276ZM23.5305 130V115.455H33.4595V118.31H27.0462V121.293H32.8274V124.155H27.0462V130H23.5305ZM38.1293 130.185C37.4332 130.185 36.8153 130.069 36.2756 129.837C35.7405 129.6 35.3168 129.245 35.0043 128.771C34.6965 128.293 34.5426 127.694 34.5426 126.974C34.5426 126.368 34.6491 125.857 34.8622 125.44C35.0753 125.024 35.3688 124.685 35.7429 124.425C36.117 124.164 36.5478 123.968 37.0355 123.835C37.5232 123.698 38.044 123.606 38.598 123.558C39.2183 123.501 39.7178 123.442 40.0966 123.381C40.4754 123.314 40.75 123.222 40.9205 123.104C41.0956 122.981 41.1832 122.808 41.1832 122.585V122.55C41.1832 122.185 41.0578 121.903 40.8068 121.705C40.5559 121.506 40.2173 121.406 39.7912 121.406C39.3319 121.406 38.9626 121.506 38.6832 121.705C38.4039 121.903 38.2263 122.178 38.1506 122.528L34.9474 122.415C35.0421 121.752 35.286 121.16 35.679 120.639C36.0767 120.114 36.6212 119.702 37.3125 119.403C38.0085 119.1 38.8442 118.949 39.8196 118.949C40.5156 118.949 41.1572 119.032 41.7443 119.197C42.3314 119.358 42.8428 119.595 43.2784 119.908C43.714 120.215 44.0502 120.594 44.2869 121.044C44.5284 121.494 44.6491 122.008 44.6491 122.585V130H41.3821V128.48H41.2969C41.1027 128.849 40.8542 129.162 40.5511 129.418C40.2528 129.673 39.9001 129.865 39.4929 129.993C39.0904 130.121 38.6359 130.185 38.1293 130.185ZM39.2017 127.912C39.5758 127.912 39.9119 127.836 40.2102 127.685C40.5133 127.533 40.7547 127.325 40.9347 127.06C41.1146 126.79 41.2045 126.477 41.2045 126.122V125.085C41.1051 125.137 40.9844 125.185 40.8423 125.227C40.705 125.27 40.5535 125.31 40.3878 125.348C40.2221 125.386 40.0516 125.419 39.8764 125.447C39.7012 125.476 39.5331 125.502 39.3722 125.526C39.0455 125.578 38.7661 125.658 38.5341 125.767C38.3068 125.876 38.1316 126.018 38.0085 126.193C37.8902 126.364 37.831 126.567 37.831 126.804C37.831 127.164 37.9588 127.438 38.2145 127.628C38.4749 127.817 38.804 127.912 39.2017 127.912ZM50.2457 123.778V130H46.7727V119.091H50.0753V121.094H50.196C50.4375 120.426 50.8494 119.903 51.4318 119.524C52.0142 119.141 52.7079 118.949 53.5128 118.949C54.2798 118.949 54.9451 119.122 55.5085 119.467C56.0767 119.808 56.517 120.286 56.8295 120.902C57.1468 121.513 57.303 122.228 57.2983 123.047V130H53.8253V123.729C53.83 123.123 53.6761 122.649 53.3636 122.308C53.0559 121.967 52.6274 121.797 52.0781 121.797C51.7135 121.797 51.3916 121.877 51.1122 122.038C50.8376 122.195 50.6245 122.42 50.473 122.713C50.3262 123.007 50.2505 123.362 50.2457 123.778ZM72.6516 120.724H69.1005C69.0531 120.36 68.9561 120.031 68.8093 119.737C68.6625 119.444 68.4684 119.193 68.2269 118.984C67.9854 118.776 67.699 118.617 67.3675 118.509C67.0408 118.395 66.6786 118.338 66.2809 118.338C65.5754 118.338 64.967 118.511 64.4556 118.857C63.949 119.202 63.5584 119.702 63.2837 120.355C63.0138 121.009 62.8789 121.799 62.8789 122.727C62.8789 123.693 63.0162 124.503 63.2908 125.156C63.5702 125.805 63.9608 126.295 64.4627 126.626C64.9693 126.953 65.5683 127.116 66.2596 127.116C66.6478 127.116 67.0006 127.067 67.3178 126.967C67.6398 126.868 67.9215 126.723 68.163 126.534C68.4092 126.34 68.6104 126.106 68.7667 125.831C68.9277 125.552 69.0389 125.237 69.1005 124.886L72.6516 124.908C72.5901 125.552 72.4031 126.186 72.0906 126.811C71.7828 127.436 71.359 128.007 70.8192 128.523C70.2795 129.034 69.6213 129.441 68.8448 129.744C68.073 130.047 67.1876 130.199 66.1886 130.199C64.8723 130.199 63.6933 129.91 62.6516 129.332C61.6147 128.75 60.7956 127.902 60.1942 126.79C59.5929 125.677 59.2923 124.323 59.2923 122.727C59.2923 121.127 59.5977 119.77 60.2085 118.658C60.8192 117.545 61.6455 116.7 62.6871 116.122C63.7288 115.545 64.896 115.256 66.1886 115.256C67.0692 115.256 67.8836 115.379 68.6317 115.625C69.3799 115.866 70.038 116.222 70.6062 116.69C71.1744 117.154 71.636 117.725 71.9911 118.402C72.3462 119.079 72.5664 119.853 72.6516 120.724ZM79.7557 130.206C78.6098 130.206 77.625 129.972 76.8011 129.503C75.982 129.029 75.3499 128.371 74.9048 127.528C74.4645 126.681 74.2443 125.698 74.2443 124.581C74.2443 123.459 74.4645 122.476 74.9048 121.634C75.3499 120.786 75.982 120.128 76.8011 119.659C77.625 119.186 78.6098 118.949 79.7557 118.949C80.9015 118.949 81.884 119.186 82.7031 119.659C83.527 120.128 84.1591 120.786 84.5994 121.634C85.0445 122.476 85.267 123.459 85.267 124.581C85.267 125.698 85.0445 126.681 84.5994 127.528C84.1591 128.371 83.527 129.029 82.7031 129.503C81.884 129.972 80.9015 130.206 79.7557 130.206ZM79.777 127.585C80.1937 127.585 80.5464 127.457 80.8352 127.202C81.1241 126.946 81.3442 126.591 81.4957 126.136C81.652 125.682 81.7301 125.156 81.7301 124.56C81.7301 123.954 81.652 123.423 81.4957 122.969C81.3442 122.514 81.1241 122.159 80.8352 121.903C80.5464 121.648 80.1937 121.52 79.777 121.52C79.3461 121.52 78.9815 121.648 78.6832 121.903C78.3897 122.159 78.1648 122.514 78.0085 122.969C77.857 123.423 77.7812 123.954 77.7812 124.56C77.7812 125.156 77.857 125.682 78.0085 126.136C78.1648 126.591 78.3897 126.946 78.6832 127.202C78.9815 127.457 79.3461 127.585 79.777 127.585ZM93.2464 119.091V121.648H86.2294V119.091H93.2464ZM87.6925 130V118.537C87.6925 117.694 87.8511 116.996 88.1683 116.442C88.4856 115.883 88.9259 115.466 89.4893 115.192C90.0528 114.912 90.7038 114.773 91.4425 114.773C91.9254 114.773 92.38 114.811 92.8061 114.886C93.237 114.957 93.5566 115.021 93.7649 115.078L93.2109 117.621C93.0831 117.578 92.9268 117.543 92.7422 117.514C92.5623 117.486 92.3918 117.472 92.2308 117.472C91.8236 117.472 91.5443 117.562 91.3928 117.741C91.2412 117.921 91.1655 118.168 91.1655 118.48V130H87.6925ZM101.118 119.091V121.648H94.1005V119.091H101.118ZM95.5636 130V118.537C95.5636 117.694 95.7222 116.996 96.0394 116.442C96.3567 115.883 96.797 115.466 97.3604 115.192C97.9239 114.912 98.5749 114.773 99.3136 114.773C99.7965 114.773 100.251 114.811 100.677 114.886C101.108 114.957 101.428 115.021 101.636 115.078L101.082 117.621C100.954 117.578 100.798 117.543 100.613 117.514C100.433 117.486 100.263 117.472 100.102 117.472C99.6947 117.472 99.4154 117.562 99.2638 117.741C99.1123 117.921 99.0366 118.168 99.0366 118.48V130H95.5636ZM107.536 130.206C106.395 130.206 105.41 129.981 104.582 129.531C103.758 129.077 103.123 128.43 102.678 127.592C102.238 126.75 102.018 125.748 102.018 124.588C102.018 123.461 102.24 122.476 102.685 121.634C103.13 120.786 103.758 120.128 104.567 119.659C105.377 119.186 106.331 118.949 107.43 118.949C108.206 118.949 108.916 119.07 109.56 119.311C110.204 119.553 110.761 119.91 111.229 120.384C111.698 120.857 112.063 121.442 112.323 122.138C112.584 122.829 112.714 123.622 112.714 124.517V125.384H103.232V123.366H109.482C109.478 122.997 109.39 122.668 109.219 122.379C109.049 122.09 108.815 121.866 108.516 121.705C108.223 121.539 107.884 121.456 107.501 121.456C107.112 121.456 106.764 121.544 106.457 121.719C106.149 121.889 105.905 122.124 105.725 122.422C105.545 122.715 105.451 123.049 105.441 123.423V125.476C105.441 125.921 105.529 126.312 105.704 126.648C105.879 126.979 106.128 127.237 106.45 127.422C106.772 127.607 107.155 127.699 107.6 127.699C107.908 127.699 108.187 127.656 108.438 127.571C108.689 127.486 108.905 127.36 109.085 127.195C109.264 127.029 109.399 126.825 109.489 126.584L112.678 126.676C112.546 127.391 112.254 128.014 111.805 128.544C111.36 129.07 110.775 129.479 110.05 129.773C109.326 130.062 108.488 130.206 107.536 130.206ZM119.587 130.206C118.446 130.206 117.461 129.981 116.632 129.531C115.809 129.077 115.174 128.43 114.729 127.592C114.289 126.75 114.069 125.748 114.069 124.588C114.069 123.461 114.291 122.476 114.736 121.634C115.181 120.786 115.809 120.128 116.618 119.659C117.428 119.186 118.382 118.949 119.48 118.949C120.257 118.949 120.967 119.07 121.611 119.311C122.255 119.553 122.811 119.91 123.28 120.384C123.749 120.857 124.114 121.442 124.374 122.138C124.634 122.829 124.765 123.622 124.765 124.517V125.384H115.283V123.366H121.533C121.528 122.997 121.441 122.668 121.27 122.379C121.1 122.09 120.865 121.866 120.567 121.705C120.274 121.539 119.935 121.456 119.551 121.456C119.163 121.456 118.815 121.544 118.507 121.719C118.2 121.889 117.956 122.124 117.776 122.422C117.596 122.715 117.501 123.049 117.492 123.423V125.476C117.492 125.921 117.579 126.312 117.755 126.648C117.93 126.979 118.178 127.237 118.5 127.422C118.822 127.607 119.206 127.699 119.651 127.699C119.959 127.699 120.238 127.656 120.489 127.571C120.74 127.486 120.955 127.36 121.135 127.195C121.315 127.029 121.45 126.825 121.54 126.584L124.729 126.676C124.596 127.391 124.305 128.014 123.855 128.544C123.41 129.07 122.826 129.479 122.101 129.773C121.377 130.062 120.539 130.206 119.587 130.206Z" fill="black"/>
</svg>
